<svg width="410" height="260" viewBox="0 0 410 260" fill="none" xmlns="http://www.w3.org/2000/svg">
<rect width="410" height="260" rx="16" fill="#32325D"/>
<rect x="0.5" y="0.5" width="409" height="259" rx="15.5" stroke="black" stroke-opacity="0.1"/>
<path d="M105.113 125.97C102.812 125.97 100.949 127.827 100.949 130.12C100.949 132.412 102.812 134.269 105.113 134.269H118.877L115.709 125.974H105.113V125.97Z" fill="#FEBA06"/>
<path d="M73.2553 134.265H93.4561C95.7566 134.265 97.6199 132.408 97.6199 130.116C97.6199 127.827 95.7566 125.966 93.4561 125.966H73.2553C70.9547 125.966 69.0914 127.823 69.0914 130.116C69.0914 132.408 70.9547 134.265 73.2553 134.265Z" fill="#A3D008"/>
<path d="M121 140.319H77.951C76.8637 139.031 75.2368 138.207 73.4168 138.207C70.1472 138.207 67.5 140.849 67.5 144.103C67.5 147.362 70.1512 150 73.4168 150C75.2368 150 76.8637 149.18 77.951 147.888H123.891L121 140.319Z" fill="#F8562C"/>
<path d="M110.647 112.222H78.0377C76.9543 110.872 75.288 110 73.4168 110C70.1472 110 67.5 112.642 67.5 115.897C67.5 119.155 70.1512 121.793 73.4168 121.793C75.1856 121.793 76.7653 121.016 77.8486 119.791H113.539L110.647 112.222Z" fill="#39BFCE"/>
<path d="M141.391 140.259H157.015V136.244H145.876V131.935H155.549V127.919H145.876V123.756H156.868V119.741H141.391V140.259Z" fill="white"/>
<path d="M160.57 140.259H168.573C175.022 140.259 179.477 135.775 179.477 130V129.941C179.477 124.167 175.022 119.741 168.573 119.741H160.57V140.259ZM168.573 123.815C172.266 123.815 174.758 126.365 174.758 130V130.059C174.758 133.693 172.266 136.185 168.573 136.185H165.085V123.815H168.573Z" fill="white"/>
<path d="M192.92 140.611C196.672 140.611 199.574 139.146 201.684 137.357V128.446H192.773V132.345H197.317V135.276C196.174 136.097 194.708 136.507 193.066 136.507C189.432 136.507 186.852 133.752 186.852 130V129.941C186.852 126.453 189.461 123.551 192.744 123.551C195.118 123.551 196.525 124.313 198.108 125.632L200.952 122.203C198.812 120.385 196.584 119.389 192.891 119.389C186.676 119.389 182.133 124.167 182.133 130V130.059C182.133 136.126 186.53 140.611 192.92 140.611Z" fill="white"/>
<path d="M205.57 140.259H221.194V136.244H210.055V131.935H219.728V127.919H210.055V123.756H221.047V119.741H205.57V140.259Z" fill="white"/>
<path d="M233.284 140.259H237.799V119.741H233.284V140.259Z" fill="white"/>
<path d="M242.468 140.259H246.895V126.951L252.611 135.628H252.728L258.502 126.864V140.259H262.987V119.741H258.121L252.728 128.417L247.334 119.741H242.468V140.259Z" fill="white"/>
<path d="M267.459 140.259H271.973V134.104H275.402C280.004 134.104 283.698 131.641 283.698 126.893V126.834C283.698 122.642 280.737 119.741 275.842 119.741H267.459V140.259ZM271.973 130.088V123.815H275.461C277.718 123.815 279.125 124.9 279.125 126.922V126.981C279.125 128.74 277.806 130.088 275.549 130.088H271.973Z" fill="white"/>
<path d="M295.14 140.582C300.651 140.582 304.139 137.533 304.139 131.319V119.741H299.625V131.495C299.625 134.749 297.954 136.419 295.198 136.419C292.443 136.419 290.772 134.69 290.772 131.348V119.741H286.258V131.466C286.258 137.504 289.629 140.582 295.14 140.582Z" fill="white"/>
<path d="M308.279 140.259H323.023V136.156H312.793V119.741H308.279V140.259Z" fill="white"/>
<path d="M333.268 140.553C337.695 140.553 340.802 138.266 340.802 134.192V134.133C340.802 130.557 338.457 129.062 334.294 127.977C330.747 127.069 329.868 126.629 329.868 125.281V125.222C329.868 124.225 330.777 123.434 332.506 123.434C334.236 123.434 336.024 124.196 337.841 125.457L340.186 122.056C338.105 120.385 335.555 119.447 332.565 119.447C328.373 119.447 325.383 121.91 325.383 125.632V125.691C325.383 129.765 328.051 130.909 332.184 131.964C335.613 132.843 336.317 133.43 336.317 134.573V134.631C336.317 135.833 335.203 136.566 333.356 136.566C331.011 136.566 329.077 135.599 327.23 134.074L324.562 137.27C327.025 139.468 330.161 140.553 333.268 140.553Z" fill="white"/>
<path d="M344.261 140.259H359.885V136.244H348.746V131.935H358.419V127.919H348.746V123.756H359.738V119.741H344.261V140.259Z" fill="white"/>
</svg>
